<mxfile host="app.diagrams.net" modified="2023-02-14T14:49:16.087Z" agent="5.0 (Windows NT 10.0; Win64; x64) AppleWebKit/537.36 (KHTML, like Gecko) Chrome/109.0.0.0 Safari/537.36" etag="fow8ovZ9iagmtcmj8Dk7" version="20.8.20" type="github" pages="2">
  <diagram name="페이지-1" id="qWWDbRVaf7EwWcL6FbFL">
    <mxGraphModel dx="880" dy="444" grid="1" gridSize="10" guides="1" tooltips="1" connect="1" arrows="1" fold="1" page="1" pageScale="1" pageWidth="827" pageHeight="1169" math="0" shadow="0">
      <root>
        <mxCell id="0" />
        <mxCell id="1" parent="0" />
        <mxCell id="2kqYavnRrpuBpzl7ReD6-1" value="DB" style="shape=cylinder3;whiteSpace=wrap;html=1;boundedLbl=1;backgroundOutline=1;size=15;" parent="1" vertex="1">
          <mxGeometry x="710" y="240" width="70" height="80" as="geometry" />
        </mxCell>
        <mxCell id="2kqYavnRrpuBpzl7ReD6-2" value="DAO" style="whiteSpace=wrap;html=1;aspect=fixed;" parent="1" vertex="1">
          <mxGeometry x="570" y="240" width="80" height="80" as="geometry" />
        </mxCell>
        <mxCell id="2kqYavnRrpuBpzl7ReD6-3" value="Service" style="whiteSpace=wrap;html=1;aspect=fixed;" parent="1" vertex="1">
          <mxGeometry x="470" y="240" width="80" height="80" as="geometry" />
        </mxCell>
        <mxCell id="2kqYavnRrpuBpzl7ReD6-4" value="Controller" style="whiteSpace=wrap;html=1;aspect=fixed;" parent="1" vertex="1">
          <mxGeometry x="374" y="240" width="80" height="80" as="geometry" />
        </mxCell>
        <mxCell id="2kqYavnRrpuBpzl7ReD6-33" style="edgeStyle=orthogonalEdgeStyle;rounded=0;orthogonalLoop=1;jettySize=auto;html=1;exitX=0.25;exitY=1;exitDx=0;exitDy=0;entryX=1;entryY=0.75;entryDx=0;entryDy=0;" parent="1" source="2kqYavnRrpuBpzl7ReD6-5" target="2kqYavnRrpuBpzl7ReD6-6" edge="1">
          <mxGeometry relative="1" as="geometry" />
        </mxCell>
        <mxCell id="2kqYavnRrpuBpzl7ReD6-35" style="edgeStyle=orthogonalEdgeStyle;rounded=0;orthogonalLoop=1;jettySize=auto;html=1;exitX=0.75;exitY=0;exitDx=0;exitDy=0;entryX=0;entryY=1;entryDx=0;entryDy=0;" parent="1" source="2kqYavnRrpuBpzl7ReD6-6" target="2kqYavnRrpuBpzl7ReD6-5" edge="1">
          <mxGeometry relative="1" as="geometry">
            <mxPoint x="160" y="230" as="targetPoint" />
          </mxGeometry>
        </mxCell>
        <mxCell id="2kqYavnRrpuBpzl7ReD6-5" value="DS&lt;br&gt;(Dispacher&lt;br&gt;Sevelt)" style="whiteSpace=wrap;html=1;aspect=fixed;" parent="1" vertex="1">
          <mxGeometry x="198" y="240" width="80" height="80" as="geometry" />
        </mxCell>
        <mxCell id="2kqYavnRrpuBpzl7ReD6-6" value="JSP" style="whiteSpace=wrap;html=1;aspect=fixed;" parent="1" vertex="1">
          <mxGeometry x="100" y="360" width="80" height="80" as="geometry" />
        </mxCell>
        <mxCell id="2kqYavnRrpuBpzl7ReD6-7" value="intemal&lt;br&gt;Resoure&lt;br&gt;ViewResolver" style="whiteSpace=wrap;html=1;aspect=fixed;" parent="1" vertex="1">
          <mxGeometry x="294" y="360" width="80" height="80" as="geometry" />
        </mxCell>
        <mxCell id="2kqYavnRrpuBpzl7ReD6-11" value="" style="endArrow=classic;html=1;rounded=0;entryX=0;entryY=0.25;entryDx=0;entryDy=0;exitX=1;exitY=0.25;exitDx=0;exitDy=0;" parent="1" source="2kqYavnRrpuBpzl7ReD6-4" target="2kqYavnRrpuBpzl7ReD6-3" edge="1">
          <mxGeometry width="50" height="50" relative="1" as="geometry">
            <mxPoint x="460" y="260" as="sourcePoint" />
            <mxPoint x="524.7106781186548" y="280" as="targetPoint" />
          </mxGeometry>
        </mxCell>
        <mxCell id="2kqYavnRrpuBpzl7ReD6-15" value="" style="endArrow=classic;html=1;rounded=0;entryX=0;entryY=0.25;entryDx=0;entryDy=0;exitX=1;exitY=0.25;exitDx=0;exitDy=0;" parent="1" source="2kqYavnRrpuBpzl7ReD6-3" target="2kqYavnRrpuBpzl7ReD6-2" edge="1">
          <mxGeometry width="50" height="50" relative="1" as="geometry">
            <mxPoint x="550" y="330" as="sourcePoint" />
            <mxPoint x="570" y="280" as="targetPoint" />
          </mxGeometry>
        </mxCell>
        <mxCell id="2kqYavnRrpuBpzl7ReD6-18" value="" style="endArrow=classic;html=1;rounded=0;exitX=1;exitY=0.25;exitDx=0;exitDy=0;" parent="1" source="2kqYavnRrpuBpzl7ReD6-2" edge="1">
          <mxGeometry width="50" height="50" relative="1" as="geometry">
            <mxPoint x="690" y="330" as="sourcePoint" />
            <mxPoint x="710" y="280" as="targetPoint" />
          </mxGeometry>
        </mxCell>
        <mxCell id="2kqYavnRrpuBpzl7ReD6-19" value="" style="endArrow=classic;html=1;rounded=0;exitX=1;exitY=0.25;exitDx=0;exitDy=0;" parent="1" source="2kqYavnRrpuBpzl7ReD6-5" edge="1">
          <mxGeometry width="50" height="50" relative="1" as="geometry">
            <mxPoint x="430" y="400" as="sourcePoint" />
            <mxPoint x="370" y="260" as="targetPoint" />
          </mxGeometry>
        </mxCell>
        <mxCell id="2kqYavnRrpuBpzl7ReD6-20" value="" style="endArrow=classic;html=1;rounded=0;entryX=1;entryY=0.75;entryDx=0;entryDy=0;exitX=0;exitY=0;exitDx=0;exitDy=52.5;exitPerimeter=0;" parent="1" source="2kqYavnRrpuBpzl7ReD6-1" target="2kqYavnRrpuBpzl7ReD6-2" edge="1">
          <mxGeometry width="50" height="50" relative="1" as="geometry">
            <mxPoint x="430" y="400" as="sourcePoint" />
            <mxPoint x="480" y="350" as="targetPoint" />
          </mxGeometry>
        </mxCell>
        <mxCell id="2kqYavnRrpuBpzl7ReD6-23" value="" style="endArrow=classic;html=1;rounded=0;entryX=1;entryY=0.75;entryDx=0;entryDy=0;" parent="1" target="2kqYavnRrpuBpzl7ReD6-3" edge="1">
          <mxGeometry width="50" height="50" relative="1" as="geometry">
            <mxPoint x="570" y="300" as="sourcePoint" />
            <mxPoint x="660" y="310" as="targetPoint" />
            <Array as="points" />
          </mxGeometry>
        </mxCell>
        <mxCell id="2kqYavnRrpuBpzl7ReD6-24" value="" style="endArrow=classic;html=1;rounded=0;entryX=1;entryY=0.75;entryDx=0;entryDy=0;exitX=0;exitY=0.75;exitDx=0;exitDy=0;" parent="1" source="2kqYavnRrpuBpzl7ReD6-3" target="2kqYavnRrpuBpzl7ReD6-4" edge="1">
          <mxGeometry width="50" height="50" relative="1" as="geometry">
            <mxPoint x="730" y="312.5" as="sourcePoint" />
            <mxPoint x="670" y="320" as="targetPoint" />
          </mxGeometry>
        </mxCell>
        <mxCell id="2kqYavnRrpuBpzl7ReD6-26" value="" style="endArrow=classic;html=1;rounded=0;entryX=1;entryY=0.75;entryDx=0;entryDy=0;exitX=0;exitY=0.75;exitDx=0;exitDy=0;" parent="1" source="2kqYavnRrpuBpzl7ReD6-4" target="2kqYavnRrpuBpzl7ReD6-5" edge="1">
          <mxGeometry width="50" height="50" relative="1" as="geometry">
            <mxPoint x="450" y="390" as="sourcePoint" />
            <mxPoint x="500" y="340" as="targetPoint" />
          </mxGeometry>
        </mxCell>
        <mxCell id="2kqYavnRrpuBpzl7ReD6-27" value="ModelAndView" style="text;html=1;strokeColor=none;fillColor=none;align=center;verticalAlign=middle;whiteSpace=wrap;rounded=0;" parent="1" vertex="1">
          <mxGeometry x="294" y="300" width="60" height="30" as="geometry" />
        </mxCell>
        <mxCell id="2kqYavnRrpuBpzl7ReD6-28" value="" style="endArrow=classic;html=1;rounded=0;exitX=1;exitY=1;exitDx=0;exitDy=0;entryX=0;entryY=0;entryDx=0;entryDy=0;" parent="1" source="2kqYavnRrpuBpzl7ReD6-5" target="2kqYavnRrpuBpzl7ReD6-7" edge="1">
          <mxGeometry width="50" height="50" relative="1" as="geometry">
            <mxPoint x="440" y="290" as="sourcePoint" />
            <mxPoint x="490" y="240" as="targetPoint" />
          </mxGeometry>
        </mxCell>
        <mxCell id="2kqYavnRrpuBpzl7ReD6-29" value="" style="endArrow=classic;html=1;rounded=0;entryX=0.75;entryY=1;entryDx=0;entryDy=0;exitX=0.013;exitY=0.625;exitDx=0;exitDy=0;exitPerimeter=0;" parent="1" source="2kqYavnRrpuBpzl7ReD6-7" target="2kqYavnRrpuBpzl7ReD6-5" edge="1">
          <mxGeometry width="50" height="50" relative="1" as="geometry">
            <mxPoint x="440" y="290" as="sourcePoint" />
            <mxPoint x="490" y="240" as="targetPoint" />
          </mxGeometry>
        </mxCell>
        <mxCell id="2kqYavnRrpuBpzl7ReD6-31" value="prefix+ViewName+sufix&lt;br&gt;" style="text;html=1;align=center;verticalAlign=middle;resizable=0;points=[];autosize=1;strokeColor=none;fillColor=none;" parent="1" vertex="1">
          <mxGeometry x="374" y="385" width="150" height="30" as="geometry" />
        </mxCell>
        <mxCell id="2kqYavnRrpuBpzl7ReD6-36" value="Model" style="text;html=1;align=center;verticalAlign=middle;resizable=0;points=[];autosize=1;strokeColor=none;fillColor=none;" parent="1" vertex="1">
          <mxGeometry x="180" y="370" width="60" height="30" as="geometry" />
        </mxCell>
        <mxCell id="2kqYavnRrpuBpzl7ReD6-40" value="View&lt;br&gt;" style="text;html=1;align=center;verticalAlign=middle;resizable=0;points=[];autosize=1;strokeColor=none;fillColor=none;" parent="1" vertex="1">
          <mxGeometry x="260" y="320" width="50" height="30" as="geometry" />
        </mxCell>
        <mxCell id="2kqYavnRrpuBpzl7ReD6-41" value="" style="endArrow=classic;html=1;rounded=0;entryX=0;entryY=0.25;entryDx=0;entryDy=0;" parent="1" target="2kqYavnRrpuBpzl7ReD6-5" edge="1">
          <mxGeometry width="50" height="50" relative="1" as="geometry">
            <mxPoint x="10" y="260" as="sourcePoint" />
            <mxPoint x="250" y="220" as="targetPoint" />
          </mxGeometry>
        </mxCell>
        <mxCell id="2kqYavnRrpuBpzl7ReD6-42" value="" style="endArrow=classic;html=1;rounded=0;exitX=0;exitY=0.75;exitDx=0;exitDy=0;" parent="1" source="2kqYavnRrpuBpzl7ReD6-5" edge="1">
          <mxGeometry width="50" height="50" relative="1" as="geometry">
            <mxPoint x="200" y="270" as="sourcePoint" />
            <mxPoint x="10" y="300" as="targetPoint" />
          </mxGeometry>
        </mxCell>
        <mxCell id="2kqYavnRrpuBpzl7ReD6-43" value="URL(ip:port),Method,parameter" style="text;html=1;align=center;verticalAlign=middle;resizable=0;points=[];autosize=1;strokeColor=none;fillColor=none;" parent="1" vertex="1">
          <mxGeometry x="30" y="200" width="190" height="30" as="geometry" />
        </mxCell>
        <mxCell id="2kqYavnRrpuBpzl7ReD6-44" value="Request" style="ellipse;whiteSpace=wrap;html=1;aspect=fixed;" parent="1" vertex="1">
          <mxGeometry x="50" y="230" width="60" height="60" as="geometry" />
        </mxCell>
        <mxCell id="2kqYavnRrpuBpzl7ReD6-46" value="Response" style="ellipse;whiteSpace=wrap;html=1;aspect=fixed;" parent="1" vertex="1">
          <mxGeometry x="120" y="230" width="60" height="60" as="geometry" />
        </mxCell>
        <mxCell id="2kqYavnRrpuBpzl7ReD6-50" value="Fowarding Redirect&lt;br&gt;" style="text;html=1;align=center;verticalAlign=middle;resizable=0;points=[];autosize=1;strokeColor=none;fillColor=none;" parent="1" vertex="1">
          <mxGeometry x="245" y="175" width="130" height="30" as="geometry" />
        </mxCell>
        <mxCell id="2kqYavnRrpuBpzl7ReD6-51" value="" style="endArrow=classic;html=1;rounded=0;exitX=0;exitY=1;exitDx=0;exitDy=0;" parent="1" source="2kqYavnRrpuBpzl7ReD6-5" edge="1">
          <mxGeometry width="50" height="50" relative="1" as="geometry">
            <mxPoint x="280" y="270" as="sourcePoint" />
            <mxPoint x="10" y="320" as="targetPoint" />
          </mxGeometry>
        </mxCell>
        <mxCell id="2kqYavnRrpuBpzl7ReD6-53" value="Redirect" style="text;html=1;align=center;verticalAlign=middle;resizable=0;points=[];autosize=1;strokeColor=none;fillColor=none;" parent="1" vertex="1">
          <mxGeometry x="60" y="310" width="70" height="30" as="geometry" />
        </mxCell>
        <mxCell id="oONYxQEV-Un81Z2qRa1U-2" value="내장 객체&lt;br style=&quot;border-color: var(--border-color);&quot;&gt;&lt;br style=&quot;border-color: var(--border-color);&quot;&gt;&lt;span style=&quot;&quot;&gt;page&lt;/span&gt;&lt;br style=&quot;border-color: var(--border-color);&quot;&gt;&lt;span style=&quot;&quot;&gt;Request,Response&lt;/span&gt;&lt;br style=&quot;border-color: var(--border-color);&quot;&gt;&lt;span style=&quot;&quot;&gt;Session(처음 들어올때 생성되어서 일정시간동안 요청이 없으면 세션만료)&lt;/span&gt;&lt;br style=&quot;border-color: var(--border-color);&quot;&gt;&lt;span style=&quot;&quot;&gt;Application&lt;/span&gt;" style="text;html=1;align=center;verticalAlign=middle;resizable=0;points=[];autosize=1;strokeColor=none;fillColor=none;" vertex="1" parent="1">
          <mxGeometry x="10" y="60" width="420" height="100" as="geometry" />
        </mxCell>
        <mxCell id="oONYxQEV-Un81Z2qRa1U-3" value="로그인정보는 Session에 저장&lt;br&gt;" style="text;html=1;align=center;verticalAlign=middle;resizable=0;points=[];autosize=1;strokeColor=none;fillColor=none;" vertex="1" parent="1">
          <mxGeometry x="18" y="160" width="180" height="30" as="geometry" />
        </mxCell>
      </root>
    </mxGraphModel>
  </diagram>
  <diagram id="kX9Het6opLrZW80Th2yb" name="페이지-2">
    <mxGraphModel dx="472" dy="746" grid="1" gridSize="10" guides="1" tooltips="1" connect="1" arrows="1" fold="1" page="1" pageScale="1" pageWidth="1169" pageHeight="827" math="0" shadow="0">
      <root>
        <mxCell id="0" />
        <mxCell id="1" parent="0" />
        <mxCell id="KKC7Of1HS49y4I3aODUz-1" value="ProductDAO" style="swimlane;fontStyle=1;align=center;verticalAlign=top;childLayout=stackLayout;horizontal=1;startSize=26;horizontalStack=0;resizeParent=1;resizeParentMax=0;resizeLast=0;collapsible=1;marginBottom=0;" parent="1" vertex="1">
          <mxGeometry x="670" y="100" width="310" height="228" as="geometry" />
        </mxCell>
        <mxCell id="KKC7Of1HS49y4I3aODUz-2" value="- sqlSession: SqlSession&#xa;- NAMESPACE:Stirng" style="text;strokeColor=none;fillColor=none;align=left;verticalAlign=top;spacingLeft=4;spacingRight=4;overflow=hidden;rotatable=0;points=[[0,0.5],[1,0.5]];portConstraint=eastwest;" parent="KKC7Of1HS49y4I3aODUz-1" vertex="1">
          <mxGeometry y="26" width="310" height="74" as="geometry" />
        </mxCell>
        <mxCell id="KKC7Of1HS49y4I3aODUz-3" value="" style="line;strokeWidth=1;fillColor=none;align=left;verticalAlign=middle;spacingTop=-1;spacingLeft=3;spacingRight=3;rotatable=0;labelPosition=right;points=[];portConstraint=eastwest;strokeColor=inherit;" parent="KKC7Of1HS49y4I3aODUz-1" vertex="1">
          <mxGeometry y="100" width="310" height="8" as="geometry" />
        </mxCell>
        <mxCell id="KKC7Of1HS49y4I3aODUz-4" value="+ getProductList(): List&lt;ProductDTO&#xa;+ getProductDetail(ProductDTO):ProductDTO&#xa;+ setProductAdd(ProductDTO):int" style="text;strokeColor=none;fillColor=none;align=left;verticalAlign=top;spacingLeft=4;spacingRight=4;overflow=hidden;rotatable=0;points=[[0,0.5],[1,0.5]];portConstraint=eastwest;" parent="KKC7Of1HS49y4I3aODUz-1" vertex="1">
          <mxGeometry y="108" width="310" height="120" as="geometry" />
        </mxCell>
        <mxCell id="KKC7Of1HS49y4I3aODUz-5" value="Product" style="text;html=1;align=center;verticalAlign=middle;resizable=0;points=[];autosize=1;strokeColor=none;fillColor=none;" parent="1" vertex="1">
          <mxGeometry x="155" y="20" width="60" height="30" as="geometry" />
        </mxCell>
        <mxCell id="KKC7Of1HS49y4I3aODUz-10" value="ProducService" style="swimlane;fontStyle=1;align=center;verticalAlign=top;childLayout=stackLayout;horizontal=1;startSize=26;horizontalStack=0;resizeParent=1;resizeParentMax=0;resizeLast=0;collapsible=1;marginBottom=0;" parent="1" vertex="1">
          <mxGeometry x="340" y="100" width="300" height="230" as="geometry" />
        </mxCell>
        <mxCell id="KKC7Of1HS49y4I3aODUz-11" value="- productDAO : ProductDAO" style="text;strokeColor=none;fillColor=none;align=left;verticalAlign=top;spacingLeft=4;spacingRight=4;overflow=hidden;rotatable=0;points=[[0,0.5],[1,0.5]];portConstraint=eastwest;" parent="KKC7Of1HS49y4I3aODUz-10" vertex="1">
          <mxGeometry y="26" width="300" height="74" as="geometry" />
        </mxCell>
        <mxCell id="KKC7Of1HS49y4I3aODUz-12" value="" style="line;strokeWidth=1;fillColor=none;align=left;verticalAlign=middle;spacingTop=-1;spacingLeft=3;spacingRight=3;rotatable=0;labelPosition=right;points=[];portConstraint=eastwest;strokeColor=inherit;" parent="KKC7Of1HS49y4I3aODUz-10" vertex="1">
          <mxGeometry y="100" width="300" height="8" as="geometry" />
        </mxCell>
        <mxCell id="KKC7Of1HS49y4I3aODUz-13" value="+ getProductList(): List&lt;ProductDTO&#xa;+ getProductDetail(ProductDTO):ProductDTO&#xa;+ setProductAdd(ProductDTO,List&lt;ProductDTO&gt;):int" style="text;strokeColor=none;fillColor=none;align=left;verticalAlign=top;spacingLeft=4;spacingRight=4;overflow=hidden;rotatable=0;points=[[0,0.5],[1,0.5]];portConstraint=eastwest;" parent="KKC7Of1HS49y4I3aODUz-10" vertex="1">
          <mxGeometry y="108" width="300" height="122" as="geometry" />
        </mxCell>
        <mxCell id="KKC7Of1HS49y4I3aODUz-19" value="ProductController" style="swimlane;fontStyle=1;align=center;verticalAlign=top;childLayout=stackLayout;horizontal=1;startSize=26;horizontalStack=0;resizeParent=1;resizeParentMax=0;resizeLast=0;collapsible=1;marginBottom=0;" parent="1" vertex="1">
          <mxGeometry x="10" y="100" width="300" height="230" as="geometry" />
        </mxCell>
        <mxCell id="KKC7Of1HS49y4I3aODUz-20" value="- productService: ProductService" style="text;strokeColor=none;fillColor=none;align=left;verticalAlign=top;spacingLeft=4;spacingRight=4;overflow=hidden;rotatable=0;points=[[0,0.5],[1,0.5]];portConstraint=eastwest;" parent="KKC7Of1HS49y4I3aODUz-19" vertex="1">
          <mxGeometry y="26" width="300" height="74" as="geometry" />
        </mxCell>
        <mxCell id="KKC7Of1HS49y4I3aODUz-21" value="" style="line;strokeWidth=1;fillColor=none;align=left;verticalAlign=middle;spacingTop=-1;spacingLeft=3;spacingRight=3;rotatable=0;labelPosition=right;points=[];portConstraint=eastwest;strokeColor=inherit;" parent="KKC7Of1HS49y4I3aODUz-19" vertex="1">
          <mxGeometry y="100" width="300" height="8" as="geometry" />
        </mxCell>
        <mxCell id="KKC7Of1HS49y4I3aODUz-22" value="+ getProductList(): ModelAndVIew&#xa;+ getProductDetail(ProductDTO):Stirng&#xa;+ setProductAdd(ProductDTO): String&#xa;+ setProductAdd:void" style="text;strokeColor=none;fillColor=none;align=left;verticalAlign=top;spacingLeft=4;spacingRight=4;overflow=hidden;rotatable=0;points=[[0,0.5],[1,0.5]];portConstraint=eastwest;" parent="KKC7Of1HS49y4I3aODUz-19" vertex="1">
          <mxGeometry y="108" width="300" height="122" as="geometry" />
        </mxCell>
        <mxCell id="KKC7Of1HS49y4I3aODUz-23" value="" style="edgeStyle=orthogonalEdgeStyle;rounded=0;orthogonalLoop=1;jettySize=auto;html=1;" parent="1" source="KKC7Of1HS49y4I3aODUz-22" target="KKC7Of1HS49y4I3aODUz-13" edge="1">
          <mxGeometry relative="1" as="geometry" />
        </mxCell>
        <mxCell id="KKC7Of1HS49y4I3aODUz-24" value="" style="edgeStyle=orthogonalEdgeStyle;rounded=0;orthogonalLoop=1;jettySize=auto;html=1;" parent="1" source="KKC7Of1HS49y4I3aODUz-13" target="KKC7Of1HS49y4I3aODUz-4" edge="1">
          <mxGeometry relative="1" as="geometry" />
        </mxCell>
        <mxCell id="KKC7Of1HS49y4I3aODUz-29" value="Member" style="text;html=1;align=center;verticalAlign=middle;resizable=0;points=[];autosize=1;strokeColor=none;fillColor=none;" parent="1" vertex="1">
          <mxGeometry x="140" y="384" width="70" height="30" as="geometry" />
        </mxCell>
        <mxCell id="KKC7Of1HS49y4I3aODUz-30" value="MemberDAO" style="swimlane;fontStyle=1;align=center;verticalAlign=top;childLayout=stackLayout;horizontal=1;startSize=26;horizontalStack=0;resizeParent=1;resizeParentMax=0;resizeLast=0;collapsible=1;marginBottom=0;" parent="1" vertex="1">
          <mxGeometry x="670" y="390" width="310" height="228" as="geometry" />
        </mxCell>
        <mxCell id="KKC7Of1HS49y4I3aODUz-31" value="- sqlSession: SqlSession&#xa;- NAMESPACE:Stirng" style="text;strokeColor=none;fillColor=none;align=left;verticalAlign=top;spacingLeft=4;spacingRight=4;overflow=hidden;rotatable=0;points=[[0,0.5],[1,0.5]];portConstraint=eastwest;" parent="KKC7Of1HS49y4I3aODUz-30" vertex="1">
          <mxGeometry y="26" width="310" height="74" as="geometry" />
        </mxCell>
        <mxCell id="KKC7Of1HS49y4I3aODUz-32" value="" style="line;strokeWidth=1;fillColor=none;align=left;verticalAlign=middle;spacingTop=-1;spacingLeft=3;spacingRight=3;rotatable=0;labelPosition=right;points=[];portConstraint=eastwest;strokeColor=inherit;" parent="KKC7Of1HS49y4I3aODUz-30" vertex="1">
          <mxGeometry y="100" width="310" height="8" as="geometry" />
        </mxCell>
        <mxCell id="KKC7Of1HS49y4I3aODUz-33" value="+ setMemberJoin(MemberDTO) : int&#xa;&#xa;" style="text;strokeColor=none;fillColor=none;align=left;verticalAlign=top;spacingLeft=4;spacingRight=4;overflow=hidden;rotatable=0;points=[[0,0.5],[1,0.5]];portConstraint=eastwest;" parent="KKC7Of1HS49y4I3aODUz-30" vertex="1">
          <mxGeometry y="108" width="310" height="120" as="geometry" />
        </mxCell>
        <mxCell id="KKC7Of1HS49y4I3aODUz-34" value="MemberController" style="swimlane;fontStyle=1;align=center;verticalAlign=top;childLayout=stackLayout;horizontal=1;startSize=26;horizontalStack=0;resizeParent=1;resizeParentMax=0;resizeLast=0;collapsible=1;marginBottom=0;" parent="1" vertex="1">
          <mxGeometry x="10" y="390" width="300" height="230" as="geometry" />
        </mxCell>
        <mxCell id="KKC7Of1HS49y4I3aODUz-35" value="- memberService : MemberService" style="text;strokeColor=none;fillColor=none;align=left;verticalAlign=top;spacingLeft=4;spacingRight=4;overflow=hidden;rotatable=0;points=[[0,0.5],[1,0.5]];portConstraint=eastwest;" parent="KKC7Of1HS49y4I3aODUz-34" vertex="1">
          <mxGeometry y="26" width="300" height="74" as="geometry" />
        </mxCell>
        <mxCell id="KKC7Of1HS49y4I3aODUz-36" value="" style="line;strokeWidth=1;fillColor=none;align=left;verticalAlign=middle;spacingTop=-1;spacingLeft=3;spacingRight=3;rotatable=0;labelPosition=right;points=[];portConstraint=eastwest;strokeColor=inherit;" parent="KKC7Of1HS49y4I3aODUz-34" vertex="1">
          <mxGeometry y="100" width="300" height="8" as="geometry" />
        </mxCell>
        <mxCell id="KKC7Of1HS49y4I3aODUz-37" value="+setMemberJoin(): void&#xa;+setMemberJoin(MemberDTO): String&#xa;" style="text;strokeColor=none;fillColor=none;align=left;verticalAlign=top;spacingLeft=4;spacingRight=4;overflow=hidden;rotatable=0;points=[[0,0.5],[1,0.5]];portConstraint=eastwest;" parent="KKC7Of1HS49y4I3aODUz-34" vertex="1">
          <mxGeometry y="108" width="300" height="122" as="geometry" />
        </mxCell>
        <mxCell id="KKC7Of1HS49y4I3aODUz-38" value="MemberService" style="swimlane;fontStyle=1;align=center;verticalAlign=top;childLayout=stackLayout;horizontal=1;startSize=26;horizontalStack=0;resizeParent=1;resizeParentMax=0;resizeLast=0;collapsible=1;marginBottom=0;" parent="1" vertex="1">
          <mxGeometry x="350" y="390" width="300" height="230" as="geometry" />
        </mxCell>
        <mxCell id="KKC7Of1HS49y4I3aODUz-39" value="- memberDAO : MemberDAO" style="text;strokeColor=none;fillColor=none;align=left;verticalAlign=top;spacingLeft=4;spacingRight=4;overflow=hidden;rotatable=0;points=[[0,0.5],[1,0.5]];portConstraint=eastwest;" parent="KKC7Of1HS49y4I3aODUz-38" vertex="1">
          <mxGeometry y="26" width="300" height="74" as="geometry" />
        </mxCell>
        <mxCell id="KKC7Of1HS49y4I3aODUz-40" value="" style="line;strokeWidth=1;fillColor=none;align=left;verticalAlign=middle;spacingTop=-1;spacingLeft=3;spacingRight=3;rotatable=0;labelPosition=right;points=[];portConstraint=eastwest;strokeColor=inherit;" parent="KKC7Of1HS49y4I3aODUz-38" vertex="1">
          <mxGeometry y="100" width="300" height="8" as="geometry" />
        </mxCell>
        <mxCell id="KKC7Of1HS49y4I3aODUz-41" value="+ setMemberJoin(MemberDTO):int" style="text;strokeColor=none;fillColor=none;align=left;verticalAlign=top;spacingLeft=4;spacingRight=4;overflow=hidden;rotatable=0;points=[[0,0.5],[1,0.5]];portConstraint=eastwest;" parent="KKC7Of1HS49y4I3aODUz-38" vertex="1">
          <mxGeometry y="108" width="300" height="122" as="geometry" />
        </mxCell>
      </root>
    </mxGraphModel>
  </diagram>
</mxfile>
